<?xml version="1.0" encoding="UTF-8"?>
<svg xmlns="http://www.w3.org/2000/svg" xmlns:xlink="http://www.w3.org/1999/xlink" width="100pt" height="100pt" viewBox="0 0 100 100" version="1.1">
<g id="surface24703044">
<path style=" stroke:none;fill-rule:nonzero;fill:rgb(92.54902%,94.117647%,94.509804%);fill-opacity:1;" d="M 69.613281 81.652344 L 30.613281 81.652344 C 24.015625 81.652344 18.613281 76.253906 18.613281 69.652344 L 18.613281 30.652344 C 18.613281 24.054688 24.015625 18.652344 30.613281 18.652344 L 69.613281 18.652344 C 76.214844 18.652344 81.613281 24.054688 81.613281 30.652344 L 81.613281 69.652344 C 81.613281 76.253906 76.214844 81.652344 69.613281 81.652344 Z M 69.613281 81.652344 "/>
<path style=" stroke:none;fill-rule:nonzero;fill:rgb(12.156863%,12.941176%,16.862745%);fill-opacity:1;" d="M 69.613281 82.652344 L 30.613281 82.652344 C 23.445312 82.652344 17.613281 76.820312 17.613281 69.652344 L 17.613281 30.652344 C 17.613281 23.484375 23.445312 17.652344 30.613281 17.652344 L 69.613281 17.652344 C 76.78125 17.652344 82.613281 23.484375 82.613281 30.652344 L 82.613281 69.652344 C 82.613281 76.820312 76.78125 82.652344 69.613281 82.652344 Z M 30.613281 19.652344 C 24.550781 19.652344 19.613281 24.589844 19.613281 30.652344 L 19.613281 69.652344 C 19.613281 75.71875 24.550781 80.652344 30.613281 80.652344 L 69.613281 80.652344 C 75.679688 80.652344 80.613281 75.71875 80.613281 69.652344 L 80.613281 30.652344 C 80.613281 24.589844 75.679688 19.652344 69.613281 19.652344 Z M 30.613281 19.652344 "/>
<path style=" stroke:none;fill-rule:nonzero;fill:rgb(92.54902%,94.117647%,94.509804%);fill-opacity:1;" d="M 77.113281 48.152344 L 77.113281 66.816406 C 77.113281 72.503906 72.460938 77.152344 66.777344 77.152344 L 33.449219 77.152344 C 27.765625 77.152344 23.113281 72.503906 23.113281 66.816406 L 23.113281 33.492188 C 23.113281 27.804688 27.765625 23.152344 33.449219 23.152344 L 67.113281 23.152344 "/>
<path style=" stroke:none;fill-rule:nonzero;fill:rgb(12.156863%,12.941176%,16.862745%);fill-opacity:1;" d="M 66.777344 77.652344 L 33.449219 77.652344 C 27.476562 77.652344 22.613281 72.792969 22.613281 66.816406 L 22.613281 33.488281 C 22.613281 27.515625 27.476562 22.652344 33.449219 22.652344 L 67.113281 22.652344 C 67.390625 22.652344 67.613281 22.878906 67.613281 23.152344 C 67.613281 23.429688 67.390625 23.652344 67.113281 23.652344 L 33.449219 23.652344 C 28.027344 23.652344 23.613281 28.066406 23.613281 33.488281 L 23.613281 66.816406 C 23.613281 72.238281 28.027344 76.652344 33.449219 76.652344 L 66.777344 76.652344 C 72.199219 76.652344 76.613281 72.238281 76.613281 66.816406 L 76.613281 48.152344 C 76.613281 47.878906 76.839844 47.652344 77.113281 47.652344 C 77.390625 47.652344 77.613281 47.878906 77.613281 48.152344 L 77.613281 66.816406 C 77.613281 72.792969 72.753906 77.652344 66.777344 77.652344 Z M 66.777344 77.652344 "/>
<path style=" stroke:none;fill-rule:nonzero;fill:rgb(12.156863%,12.941176%,16.862745%);fill-opacity:1;" d="M 77.113281 46.652344 C 76.839844 46.652344 76.613281 46.429688 76.613281 46.152344 L 76.613281 42.152344 C 76.613281 41.878906 76.839844 41.652344 77.113281 41.652344 C 77.390625 41.652344 77.613281 41.878906 77.613281 42.152344 L 77.613281 46.152344 C 77.613281 46.429688 77.390625 46.652344 77.113281 46.652344 Z M 77.113281 40.652344 C 76.839844 40.652344 76.613281 40.429688 76.613281 40.152344 L 76.613281 38.152344 C 76.613281 37.878906 76.839844 37.652344 77.113281 37.652344 C 77.390625 37.652344 77.613281 37.878906 77.613281 38.152344 L 77.613281 40.152344 C 77.613281 40.429688 77.390625 40.652344 77.113281 40.652344 Z M 77.113281 40.652344 "/>
<path style=" stroke:none;fill-rule:nonzero;fill:rgb(47.058824%,63.137255%,81.960784%);fill-opacity:1;" d="M 65.996094 40.921875 C 64.820312 41.445312 63.554688 41.800781 62.226562 41.957031 C 63.582031 41.144531 64.621094 39.859375 65.113281 38.324219 C 63.84375 39.078125 62.441406 39.625 60.945312 39.917969 C 59.746094 38.644531 58.039062 37.847656 56.152344 37.847656 C 52.527344 37.847656 49.589844 40.785156 49.589844 44.410156 C 49.589844 44.921875 49.648438 45.425781 49.757812 45.90625 C 44.304688 45.632812 39.46875 43.019531 36.230469 39.046875 C 35.664062 40.015625 35.34375 41.144531 35.34375 42.347656 C 35.34375 44.625 36.5 46.632812 38.261719 47.8125 C 37.1875 47.777344 36.175781 47.480469 35.289062 46.988281 C 35.289062 47.015625 35.289062 47.046875 35.289062 47.070312 C 35.289062 50.253906 37.550781 52.90625 40.554688 53.507812 C 40.003906 53.65625 39.421875 53.738281 38.824219 53.738281 C 38.398438 53.738281 37.988281 53.699219 37.589844 53.621094 C 38.425781 56.226562 40.847656 58.125 43.71875 58.179688 C 41.476562 59.941406 38.644531 60.992188 35.570312 60.992188 C 35.039062 60.992188 34.515625 60.960938 34.003906 60.898438 C 36.90625 62.757812 40.359375 63.847656 44.066406 63.847656 C 56.136719 63.847656 62.738281 53.84375 62.738281 45.171875 C 62.738281 44.886719 62.730469 44.601562 62.71875 44.320312 C 64.003906 43.394531 65.113281 42.242188 65.996094 40.921875 Z M 65.996094 40.921875 "/>
<path style=" stroke:none;fill-rule:nonzero;fill:rgb(12.156863%,12.941176%,16.862745%);fill-opacity:1;" d="M 44.066406 64.347656 C 40.398438 64.347656 36.824219 63.300781 33.734375 61.320312 C 33.539062 61.195312 33.453125 60.949219 33.53125 60.730469 C 33.613281 60.511719 33.835938 60.375 34.0625 60.402344 C 34.554688 60.460938 35.0625 60.492188 35.570312 60.492188 C 38.011719 60.492188 40.339844 59.816406 42.367188 58.527344 C 39.921875 58.003906 37.894531 56.214844 37.113281 53.773438 C 37.058594 53.605469 37.097656 53.421875 37.214844 53.289062 C 37.332031 53.160156 37.511719 53.101562 37.683594 53.132812 C 37.914062 53.175781 38.144531 53.207031 38.375 53.222656 C 36.210938 51.992188 34.789062 49.664062 34.789062 47.074219 C 34.789062 47.066406 34.789062 46.980469 34.789062 46.972656 C 34.796875 46.800781 34.890625 46.640625 35.042969 46.554688 C 35.195312 46.472656 35.378906 46.46875 35.53125 46.554688 C 35.871094 46.742188 36.230469 46.898438 36.601562 47.019531 C 35.480469 45.746094 34.84375 44.09375 34.84375 42.347656 C 34.84375 41.101562 35.171875 39.871094 35.796875 38.796875 C 35.882812 38.65625 36.027344 38.5625 36.191406 38.550781 C 36.355469 38.542969 36.515625 38.605469 36.617188 38.734375 C 39.734375 42.554688 44.273438 44.949219 49.152344 45.363281 C 49.109375 45.054688 49.089844 44.734375 49.089844 44.410156 C 49.089844 40.515625 52.257812 37.347656 56.152344 37.347656 C 58.003906 37.347656 59.796875 38.082031 61.113281 39.375 C 62.429688 39.085938 63.6875 38.589844 64.859375 37.898438 C 65.039062 37.789062 65.261719 37.804688 65.425781 37.9375 C 65.589844 38.066406 65.652344 38.28125 65.589844 38.480469 C 65.277344 39.453125 64.761719 40.339844 64.078125 41.085938 C 64.664062 40.921875 65.238281 40.714844 65.792969 40.46875 C 65.996094 40.378906 66.234375 40.433594 66.378906 40.601562 C 66.523438 40.773438 66.535156 41.015625 66.410156 41.203125 C 65.542969 42.503906 64.472656 43.632812 63.230469 44.566406 C 63.238281 44.769531 63.242188 44.972656 63.242188 45.171875 C 63.238281 54.597656 56.066406 64.347656 44.066406 64.347656 Z M 36.054688 61.484375 C 38.539062 62.707031 41.273438 63.347656 44.066406 63.347656 C 55.441406 63.347656 62.238281 54.105469 62.238281 45.171875 C 62.238281 44.894531 62.230469 44.617188 62.21875 44.34375 C 62.214844 44.175781 62.289062 44.015625 62.425781 43.914062 C 63.207031 43.351562 63.917969 42.707031 64.550781 41.988281 C 63.8125 42.207031 63.054688 42.363281 62.285156 42.453125 C 62.054688 42.484375 61.828125 42.339844 61.753906 42.117188 C 61.675781 41.894531 61.765625 41.648438 61.96875 41.527344 C 62.835938 41.007812 63.550781 40.289062 64.0625 39.4375 C 63.097656 39.878906 62.085938 40.203125 61.039062 40.410156 C 60.875 40.441406 60.699219 40.386719 60.582031 40.261719 C 59.4375 39.046875 57.824219 38.347656 56.152344 38.347656 C 52.808594 38.347656 50.089844 41.066406 50.089844 44.410156 C 50.089844 44.882812 50.144531 45.347656 50.246094 45.792969 C 50.28125 45.945312 50.242188 46.105469 50.144531 46.226562 C 50.042969 46.347656 49.886719 46.40625 49.734375 46.40625 C 44.589844 46.144531 39.746094 43.804688 36.335938 39.945312 C 36.011719 40.699219 35.84375 41.519531 35.84375 42.347656 C 35.84375 44.378906 36.851562 46.265625 38.539062 47.394531 C 38.726562 47.519531 38.804688 47.753906 38.738281 47.964844 C 38.667969 48.175781 38.46875 48.34375 38.246094 48.3125 C 37.421875 48.285156 36.601562 48.113281 35.839844 47.804688 C 36.167969 50.394531 38.089844 52.503906 40.652344 53.019531 C 40.878906 53.066406 41.046875 53.261719 41.054688 53.492188 C 41.0625 53.726562 40.90625 53.929688 40.683594 53.992188 C 39.929688 54.195312 39.148438 54.277344 38.363281 54.222656 C 39.339844 56.277344 41.40625 57.636719 43.730469 57.679688 C 43.941406 57.683594 44.125 57.820312 44.195312 58.019531 C 44.261719 58.222656 44.195312 58.441406 44.027344 58.574219 C 41.722656 60.382812 38.972656 61.382812 36.054688 61.484375 Z M 36.054688 61.484375 "/>
</g>
</svg>
